<?xml version="1.0" encoding="UTF-8"?>
<svg id="Layer_2" data-name="Layer 2" xmlns="http://www.w3.org/2000/svg" viewBox="0 0 852.89 301.61">
  <defs>
    <style>
      .cls-1 {
        fill: #a7ae8a;
      }
    </style>
  </defs>
  <g id="Layer_1-2" data-name="Layer 1">
    <g>
      <g>
        <path class="cls-1" d="M164.84,130.5c-1.24-19.19-2.48-38.38-3.72-57.56-1.78-19.17-3.56-38.35-5.34-57.52-.08-1.01.43-1.56,1.52-1.65,18.21-1.43,36.42-2.74,54.65-3.94,26.03-1.72,45.82,6.04,46.94,26.5.78,14.21-6.69,22.75-20.28,27.48,17.11,2.53,25.94,12.59,26.64,25.61,1.37,25.71-20.91,37.1-44.61,38.67-18.03,1.19-36.06,2.48-54.07,3.89-1.06.08-1.63-.38-1.72-1.48ZM215.45,57.47c10.61-.7,16.78-6.16,16.19-15.8-.64-10.48-8.72-14.57-18.15-13.95-9.48.62-18.96,1.28-28.44,1.96.51,9.93,1.01,19.85,1.52,29.78,9.62-.7,19.25-1.36,28.88-2ZM218.92,110.2c11.2-.74,19.66-5.32,18.82-19.19-.76-12.51-10.17-16.35-21.11-15.63-9.59.63-19.18,1.29-28.76,1.99,1.05,11.59,2.1,23.17,3.14,34.76,9.3-.67,18.6-1.32,27.91-1.93Z"/>
        <path class="cls-1" d="M275.01,123.24c-.75-19.21-1.5-38.43-2.25-57.64-1.29-19.21-2.58-38.43-3.87-57.64-.05-1.02.46-1.55,1.56-1.61,8.19-.43,16.38-.84,24.58-1.23,1.09-.05,1.66.43,1.71,1.45.66,19.24,1.32,38.49,1.98,57.73,1.14,19.19,2.28,38.39,3.41,57.58.05,1.1-.46,1.63-1.52,1.68-7.97.38-15.95.77-23.92,1.19-1.06.06-1.62-.42-1.68-1.52Z"/>
        <path class="cls-1" d="M307.92,84.82c-.05-1.02.55-1.64,1.63-1.68,8.41-.38,16.81-.73,25.22-1.05.98-.04,1.54.45,1.75,1.37,2.22,13.23,8.86,21.58,29.31,20.92,16.19-.51,24.97-5.3,24.68-16.48-.75-26.97-80.06-2.99-82.17-49.81-1.02-22.15,16.94-36.94,49.6-38.03,29.82-.98,50.68,9.3,55.06,34.45.11,1.1-.51,1.7-1.59,1.73-8.49.18-16.99.38-25.48.61-1.08.03-1.64-.46-1.76-1.48-1.73-10.71-11.24-16.31-26.67-15.8-13.07.43-22.34,5.04-21.96,14.85.92,25,81.33,2.16,82.24,49.29.46,25.08-19.47,38.95-51.86,39.98-32.47,1.04-55.53-10.91-58-38.87Z"/>
        <path class="cls-1" d="M449.6,117.51c.14-19.23.29-38.46.44-57.69-.44-13.38-.87-26.76-1.31-40.13-11.67.15-23.34.34-35.01.58-1,.02-1.65-.56-1.67-1.57-.11-5.33-.22-10.67-.33-16-.02-.93.61-1.54,1.61-1.56,32.88-.67,65.77-.98,98.66-.93,1.09,0,1.73.6,1.73,1.53-.01,5.34-.02,10.67-.03,16.01,0,1.02-.64,1.61-1.73,1.61-11.67-.02-23.34,0-35.01.08-.19,13.38-.38,26.77-.56,40.15.51,19.22,1.02,38.45,1.52,57.67,0,1.1-.61,1.61-1.59,1.62-8.34.05-16.67.13-25.01.23-1.06.01-1.69-.49-1.7-1.59Z"/>
        <path class="cls-1" d="M519.16,139.77c.27-19.23.55-38.45.82-57.68-.14-19.25-.28-38.51-.43-57.76,0-1.02.55-1.52,1.64-1.52,17.13.07,34.26.23,51.39.49,31.75.5,49.72,13.6,49.03,38.31-.48,17.53-10.9,29.17-28.74,33.89,9.89,15.17,19.67,30.37,29.35,45.6.68,1.04.3,1.87-1.02,1.84-9.2-.25-18.4-.47-27.6-.66-.79-.02-1.58-.46-2.01-1.14-5.12-8.55-10.28-17.09-15.46-25.61-3.98-5.94-7.99-11.87-12-17.8-5.94-.08-11.88-.15-17.82-.21.01,14.14.02,28.29.03,42.43-.01,1.1-.55,1.6-1.6,1.59-8-.08-15.99-.13-23.99-.16-1.06,0-1.59-.51-1.58-1.61ZM573.51,79.06c11.45.18,21.39-4.69,21.67-17.56.27-12.87-7.72-19.15-21.81-19.37-8.72-.14-17.45-.25-26.17-.33-.27,12.31-.54,24.61-.81,36.92,9.04.09,18.08.2,27.12.35Z"/>
        <path class="cls-1" d="M625.48,61.49c.96-37.74,26.79-61.54,66.04-59.9,38.89,1.65,63.21,27.06,60.96,65.25-2.13,36.21-28.34,59.9-66.17,58.29-37.82-1.58-61.76-27.39-60.84-63.65ZM724.3,65.34c1.33-25.87-10.36-42.96-33.6-43.94-23.25-.97-36.12,14.57-37,40.97-.85,25.74,11.25,42.05,33.64,42.98,22.39.95,35.63-14.11,36.96-40.01Z"/>
        <path class="cls-1" d="M780.08,125.96c1.61-19.16,3.22-38.32,4.84-57.49.59-13.37,1.17-26.74,1.75-40.12-11.65-.75-23.31-1.44-34.97-2.1-1-.06-1.6-.68-1.54-1.7.3-5.33.59-10.65.89-15.98.05-.93.72-1.49,1.72-1.43,32.85,1.84,65.68,4.04,98.5,6.61,1.09.09,1.68.73,1.61,1.66-.42,5.32-.84,10.64-1.26,15.96-.08,1.01-.76,1.55-1.85,1.47-11.64-.91-23.29-1.78-34.94-2.6-1.21,13.33-2.42,26.66-3.62,39.99-.96,19.21-1.92,38.41-2.89,57.62-.08,1.1-.73,1.56-1.71,1.49-8.32-.58-16.64-1.14-24.96-1.68-1.06-.07-1.65-.62-1.58-1.71Z"/>
      </g>
      <g>
        <path class="cls-1" d="M0,271.08c.26-19.22.53-38.45.79-57.68-.26-19.26-.53-38.51-.79-57.76,0-1.02.53-1.54,1.59-1.57,17.65-.53,35.31-1.03,52.96-1.5,25.2-.7,43.89,8.01,43.89,29.33,0,14.78-7.76,23.28-21.33,27.36,16.57,3.57,24.68,14.48,24.68,28.05,0,26.81-22.74,36.99-46.36,36.5-17.95-.34-35.9-.7-53.84-1.08-1.06-.02-1.59-.54-1.59-1.64ZM54.9,201.4c10.4-.08,16.74-5.35,16.74-15.29,0-10.81-7.58-15.37-16.74-15.19-9.22.18-18.45.37-27.67.56-.21,10.06-.41,20.11-.62,30.16,9.43-.08,18.86-.16,28.29-.24ZM54.9,255.44c11.1.14,19.74-3.95,19.74-18.26,0-12.92-8.99-17.44-19.74-17.42-9.43.01-18.86.03-28.29.04.21,11.76.41,23.53.62,35.3,9.22.12,18.45.23,27.67.34Z"/>
        <path class="cls-1" d="M98.79,272.72c13.93-39.76,27.85-80.07,41.78-120.83.26-.9.88-1.35,1.85-1.37,11.11-.22,22.21-.43,33.32-.63.88-.02,1.5.42,1.76,1.32,13.66,40.64,27.32,81.7,40.99,123.08.35,1.18-.18,1.9-1.32,1.89-8.11-.09-16.22-.18-24.33-.27-.97-.01-1.59-.47-1.85-1.37-3.2-10.29-6.41-20.55-9.61-30.8-15.42-.07-30.85-.15-46.27-.24-3.08,10.09-6.17,20.15-9.25,30.18-.26.88-.88,1.32-1.85,1.3-7.96-.12-15.92-.25-23.88-.38-1.15-.02-1.76-.73-1.32-1.87ZM174.59,221.96c-5.61-17.9-11.22-35.74-16.83-53.49-5.38,17.91-10.75,35.74-16.13,53.5,10.99,0,21.98,0,32.96-.01Z"/>
        <path class="cls-1" d="M214.97,235.09c0-1.09.62-1.72,1.67-1.72,8.29.02,16.57.03,24.86.05.97,0,1.5.55,1.67,1.55,1.67,14.3,7.93,23.65,28.21,23.76,16.04.09,24.86-4.84,24.86-16.96,0-28.98-78.8-6.25-78.8-56.64,0-23.72,17.98-38.9,49.54-39.3,28.83-.35,48.75,11.09,52.54,38.53.09,1.2-.53,1.84-1.59,1.85-8.29.03-16.57.07-24.86.1-1.06,0-1.59-.54-1.67-1.64-1.41-11.65-10.49-17.92-25.48-17.79-12.69.11-21.86,4.76-21.86,15.33,0,27.16,79.16,4.69,79.16,55.75,0,27.28-20.1,41.93-52.36,41.65-32.35-.3-54.74-14.55-55.89-44.51Z"/>
        <path class="cls-1" d="M354.16,275.39c.38-20.96.76-41.93,1.15-62.89-.26-14.59-.53-29.18-.79-43.77-11.34.04-22.68.09-34.03.15-.97,0-1.59-.64-1.59-1.74v-17.4c0-1.01.62-1.66,1.59-1.67,31.82-.24,63.65-.37,95.47-.39,1.06,0,1.67.65,1.67,1.67v17.49c0,1.11-.62,1.76-1.67,1.76-11.34,0-22.68.02-34.03.05-.26,14.61-.53,29.23-.79,43.84.38,20.99.76,41.99,1.15,62.98,0,1.2-.62,1.76-1.59,1.75-8.29-.02-16.57-.04-24.86-.07-1.06,0-1.67-.56-1.67-1.76Z"/>
        <path class="cls-1" d="M395.77,275.3c13.93-42.05,27.86-84.16,41.78-126.23.26-.93.88-1.39,1.85-1.39,11.11.01,22.21.04,33.32.07.88,0,1.5.47,1.76,1.39,13.66,42.09,27.33,84.11,40.99,125.97.35,1.2-.18,1.94-1.32,1.94-8.11.04-16.22.07-24.33.09-.97,0-1.59-.46-1.85-1.38-3.2-10.49-6.41-20.99-9.61-31.5-15.43.02-30.85.03-46.28.03-3.09,10.52-6.17,21.04-9.26,31.57-.26.93-.88,1.39-1.85,1.39-7.96,0-15.93,0-23.89-.02-1.15,0-1.76-.74-1.32-1.95ZM471.58,221.91c-5.61-18.43-11.22-36.88-16.84-55.33-5.38,18.44-10.75,36.88-16.13,55.33,10.99,0,21.98,0,32.97,0Z"/>
        <path class="cls-1" d="M519.01,299.87c.21-20.93.41-41.85.62-62.78-.21-20.95-.41-41.91-.62-62.87,0-1.11.53-1.66,1.59-1.65,16.66.08,33.32.17,49.98.29,30.85.24,48.66,13.89,48.66,40.4,0,18.81-9.96,31.66-27.5,37.22,10.08,16.1,20.16,32.11,30.23,48.02.71,1.08.35,1.99-.97,2.01-9.2.13-18.39.26-27.59.37-.79,0-1.59-.44-2.03-1.16-5.29-9.04-10.58-18.11-15.87-27.2-4.05-6.32-8.11-12.65-12.16-19-5.88.02-11.75.05-17.63.07.15,15.35.29,30.7.44,46.05,0,1.19-.53,1.75-1.59,1.76-7.99.07-15.98.13-23.98.19-1.06,0-1.59-.54-1.59-1.74ZM572.34,233.17c11.28-.02,20.98-5.52,20.98-19.39,0-13.88-7.93-20.49-21.68-20.56-8.52-.04-17.04-.07-25.56-.1-.15,13.36-.29,26.72-.44,40.08,8.9,0,17.81-.02,26.71-.03Z"/>
        <path class="cls-1" d="M627.53,274.5c.26-20.61.53-41.22.79-61.82-.26-20.63-.53-41.27-.79-61.91,0-1.09.53-1.63,1.59-1.61,14.49.21,28.97.44,43.45.7,35.43.71,65.4,20.51,65.4,64,0,43.67-30.32,61.34-65.05,61.85-14.6.18-29.2.35-43.81.5-1.06.01-1.59-.53-1.59-1.71ZM674.33,255.38c19.92-.18,35.96-12.27,35.96-41.78,0-29.51-15.86-43.12-36.67-43.41-6.29-.08-12.58-.16-18.86-.23-.21,14.08-.41,28.16-.62,42.24.21,14.45.41,28.89.62,43.33,6.52-.05,13.05-.09,19.57-.15Z"/>
        <path class="cls-1" d="M741.76,234.77c0-1.06.62-1.68,1.67-1.68,8.28-.03,16.57-.05,24.85-.08.97,0,1.5.52,1.67,1.48,1.67,13.72,7.93,22.56,28.2,22.29,16.04-.21,24.85-4.96,24.85-16.26,0-27.13-78.79-5.3-78.79-54.32,0-23.13,17.98-37.19,49.53-36.28,28.82.83,48.73,12.22,52.52,37.5.09,1.1-.53,1.69-1.59,1.67-8.28-.12-16.57-.24-24.85-.36-1.06-.01-1.59-.54-1.67-1.57-1.41-10.91-10.49-17.04-25.47-17.34-12.69-.26-21.86,3.94-21.86,14.08,0,25.93,79.14,5.99,79.14,52.87,0,24.99-20.09,39.03-52.35,39.74-32.34.7-54.73-12.5-55.88-41.74Z"/>
      </g>
    </g>
  </g>
</svg>